<mxfile host="app.diagrams.net" agent="Mozilla/5.0 (Windows NT 10.0; Win64; x64) AppleWebKit/537.36 (KHTML, like Gecko) Chrome/128.0.0.0 Safari/537.36" version="24.7.14">
  <diagram name="Page-1" id="RovQbOXM-3uTcX77ALUE">
    <mxGraphModel dx="765" dy="416" grid="1" gridSize="10" guides="1" tooltips="1" connect="1" arrows="1" fold="1" page="1" pageScale="1" pageWidth="1169" pageHeight="827" math="0" shadow="0">
      <root>
        <mxCell id="0" />
        <mxCell id="1" parent="0" />
        <mxCell id="3HRxXxdEko_PYu17ax30-112" value="" style="shape=folder;fontStyle=1;tabWidth=80;tabHeight=30;tabPosition=left;html=1;boundedLbl=1;whiteSpace=wrap;fillColor=#fad7ac;strokeColor=#b46504;" vertex="1" parent="1">
          <mxGeometry x="80" y="70" width="870" height="1300" as="geometry" />
        </mxCell>
        <mxCell id="3HRxXxdEko_PYu17ax30-113" value="" style="shape=folder;fontStyle=1;tabWidth=80;tabHeight=30;tabPosition=left;html=1;boundedLbl=1;whiteSpace=wrap;fillColor=#b0e3e6;strokeColor=#0e8088;" vertex="1" parent="1">
          <mxGeometry x="110" y="130" width="610" height="370" as="geometry" />
        </mxCell>
        <mxCell id="3HRxXxdEko_PYu17ax30-121" value="index.ts&lt;div&gt;&lt;br&gt;&lt;/div&gt;" style="sketch=0;outlineConnect=0;fontColor=#232F3E;gradientColor=none;fillColor=#232F3D;strokeColor=none;dashed=1;verticalLabelPosition=bottom;verticalAlign=top;align=center;html=1;fontSize=12;fontStyle=0;aspect=fixed;pointerEvents=1;shape=mxgraph.aws4.source_code;" vertex="1" parent="1">
          <mxGeometry x="132" y="325" width="29.23" height="40" as="geometry" />
        </mxCell>
        <mxCell id="3HRxXxdEko_PYu17ax30-147" style="edgeStyle=orthogonalEdgeStyle;rounded=0;orthogonalLoop=1;jettySize=auto;html=1;exitX=0;exitY=0;exitDx=0;exitDy=175;exitPerimeter=0;" edge="1" parent="1" source="3HRxXxdEko_PYu17ax30-122" target="3HRxXxdEko_PYu17ax30-121">
          <mxGeometry relative="1" as="geometry" />
        </mxCell>
        <mxCell id="3HRxXxdEko_PYu17ax30-148" value="&amp;lt;&amp;lt;import&amp;gt;&amp;gt;" style="edgeLabel;html=1;align=center;verticalAlign=middle;resizable=0;points=[];" vertex="1" connectable="0" parent="3HRxXxdEko_PYu17ax30-147">
          <mxGeometry x="0.0806" relative="1" as="geometry">
            <mxPoint as="offset" />
          </mxGeometry>
        </mxCell>
        <mxCell id="3HRxXxdEko_PYu17ax30-122" value="" style="shape=folder;fontStyle=1;tabWidth=80;tabHeight=30;tabPosition=left;html=1;boundedLbl=1;whiteSpace=wrap;fillColor=#b1ddf0;strokeColor=#10739e;" vertex="1" parent="1">
          <mxGeometry x="250" y="170" width="440" height="320" as="geometry" />
        </mxCell>
        <mxCell id="3HRxXxdEko_PYu17ax30-130" value="index.ts" style="sketch=0;outlineConnect=0;fontColor=#232F3E;gradientColor=none;fillColor=#232F3D;strokeColor=none;dashed=0;verticalLabelPosition=bottom;verticalAlign=top;align=center;html=1;fontSize=12;fontStyle=0;aspect=fixed;pointerEvents=1;shape=mxgraph.aws4.source_code;" vertex="1" parent="1">
          <mxGeometry x="280" y="310" width="29.23" height="40" as="geometry" />
        </mxCell>
        <mxCell id="3HRxXxdEko_PYu17ax30-131" value="" style="group" vertex="1" connectable="0" parent="1">
          <mxGeometry x="370" y="210" width="295" height="120" as="geometry" />
        </mxCell>
        <mxCell id="3HRxXxdEko_PYu17ax30-123" value="" style="shape=folder;fontStyle=1;tabWidth=60;tabHeight=20;tabPosition=left;html=1;boundedLbl=1;whiteSpace=wrap;fillColor=#d0cee2;strokeColor=#56517e;" vertex="1" parent="3HRxXxdEko_PYu17ax30-131">
          <mxGeometry width="295" height="120" as="geometry" />
        </mxCell>
        <mxCell id="3HRxXxdEko_PYu17ax30-124" value="" style="shape=folder;fontStyle=1;tabWidth=60;tabHeight=20;tabPosition=left;html=1;boundedLbl=1;whiteSpace=wrap;fillColor=#bac8d3;strokeColor=#23445d;" vertex="1" parent="3HRxXxdEko_PYu17ax30-131">
          <mxGeometry x="164" y="30" width="120" height="70" as="geometry" />
        </mxCell>
        <mxCell id="3HRxXxdEko_PYu17ax30-126" value="&lt;font style=&quot;font-size: 9px;&quot;&gt;__test__&lt;/font&gt;" style="text;html=1;align=center;verticalAlign=middle;whiteSpace=wrap;rounded=0;" vertex="1" parent="3HRxXxdEko_PYu17ax30-131">
          <mxGeometry x="161" y="31" width="60" height="15" as="geometry" />
        </mxCell>
        <mxCell id="3HRxXxdEko_PYu17ax30-150" value="" style="edgeStyle=orthogonalEdgeStyle;rounded=0;orthogonalLoop=1;jettySize=auto;html=1;dashed=1;" edge="1" parent="3HRxXxdEko_PYu17ax30-131" source="3HRxXxdEko_PYu17ax30-128" target="3HRxXxdEko_PYu17ax30-129">
          <mxGeometry relative="1" as="geometry" />
        </mxCell>
        <mxCell id="3HRxXxdEko_PYu17ax30-156" value="&amp;lt;&amp;lt;import&amp;gt;&amp;gt;" style="edgeLabel;html=1;align=center;verticalAlign=middle;resizable=0;points=[];" vertex="1" connectable="0" parent="3HRxXxdEko_PYu17ax30-150">
          <mxGeometry x="-0.0371" y="-1" relative="1" as="geometry">
            <mxPoint as="offset" />
          </mxGeometry>
        </mxCell>
        <mxCell id="3HRxXxdEko_PYu17ax30-128" value="Button.tsx" style="sketch=0;outlineConnect=0;fontColor=#232F3E;gradientColor=none;fillColor=#232F3D;strokeColor=none;dashed=0;verticalLabelPosition=bottom;verticalAlign=top;align=center;html=1;fontSize=12;fontStyle=0;aspect=fixed;pointerEvents=1;shape=mxgraph.aws4.source_code;" vertex="1" parent="3HRxXxdEko_PYu17ax30-131">
          <mxGeometry x="112" y="46" width="29.23" height="40" as="geometry" />
        </mxCell>
        <mxCell id="3HRxXxdEko_PYu17ax30-129" value="index.ts" style="sketch=0;outlineConnect=0;fontColor=#232F3E;gradientColor=none;fillColor=#232F3D;strokeColor=none;dashed=0;verticalLabelPosition=bottom;verticalAlign=top;align=center;html=1;fontSize=12;fontStyle=0;aspect=fixed;pointerEvents=1;shape=mxgraph.aws4.source_code;" vertex="1" parent="3HRxXxdEko_PYu17ax30-131">
          <mxGeometry x="8" y="46" width="29.23" height="40" as="geometry" />
        </mxCell>
        <mxCell id="3HRxXxdEko_PYu17ax30-139" value="Button" style="text;html=1;align=center;verticalAlign=middle;whiteSpace=wrap;rounded=0;" vertex="1" parent="3HRxXxdEko_PYu17ax30-131">
          <mxGeometry width="59.23" height="26" as="geometry" />
        </mxCell>
        <mxCell id="3HRxXxdEko_PYu17ax30-132" value="" style="group" vertex="1" connectable="0" parent="1">
          <mxGeometry x="370" y="340" width="295" height="120" as="geometry" />
        </mxCell>
        <mxCell id="3HRxXxdEko_PYu17ax30-133" value="" style="shape=folder;fontStyle=1;tabWidth=60;tabHeight=20;tabPosition=left;html=1;boundedLbl=1;whiteSpace=wrap;fillColor=#d0cee2;strokeColor=#56517e;" vertex="1" parent="3HRxXxdEko_PYu17ax30-132">
          <mxGeometry width="295" height="120" as="geometry" />
        </mxCell>
        <mxCell id="3HRxXxdEko_PYu17ax30-134" value="" style="shape=folder;fontStyle=1;tabWidth=60;tabHeight=20;tabPosition=left;html=1;boundedLbl=1;whiteSpace=wrap;fillColor=#bac8d3;strokeColor=#23445d;" vertex="1" parent="3HRxXxdEko_PYu17ax30-132">
          <mxGeometry x="164" y="30" width="120" height="70" as="geometry" />
        </mxCell>
        <mxCell id="3HRxXxdEko_PYu17ax30-135" value="&lt;font style=&quot;font-size: 9px;&quot;&gt;__test__&lt;/font&gt;" style="text;html=1;align=center;verticalAlign=middle;whiteSpace=wrap;rounded=0;" vertex="1" parent="3HRxXxdEko_PYu17ax30-132">
          <mxGeometry x="161" y="31" width="60" height="15" as="geometry" />
        </mxCell>
        <mxCell id="3HRxXxdEko_PYu17ax30-149" value="" style="edgeStyle=orthogonalEdgeStyle;rounded=0;orthogonalLoop=1;jettySize=auto;html=1;dashed=1;" edge="1" parent="3HRxXxdEko_PYu17ax30-132" source="3HRxXxdEko_PYu17ax30-136" target="3HRxXxdEko_PYu17ax30-137">
          <mxGeometry relative="1" as="geometry" />
        </mxCell>
        <mxCell id="3HRxXxdEko_PYu17ax30-155" value="&amp;lt;&amp;lt;import&amp;gt;&amp;gt;" style="edgeLabel;html=1;align=center;verticalAlign=middle;resizable=0;points=[];" vertex="1" connectable="0" parent="3HRxXxdEko_PYu17ax30-149">
          <mxGeometry x="-0.076" y="-2" relative="1" as="geometry">
            <mxPoint as="offset" />
          </mxGeometry>
        </mxCell>
        <mxCell id="3HRxXxdEko_PYu17ax30-136" value="" style="sketch=0;outlineConnect=0;fontColor=#232F3E;gradientColor=none;fillColor=#232F3D;strokeColor=none;dashed=0;verticalLabelPosition=bottom;verticalAlign=top;align=center;html=1;fontSize=12;fontStyle=0;aspect=fixed;pointerEvents=1;shape=mxgraph.aws4.source_code;" vertex="1" parent="3HRxXxdEko_PYu17ax30-132">
          <mxGeometry x="114" y="46" width="29.23" height="40" as="geometry" />
        </mxCell>
        <mxCell id="3HRxXxdEko_PYu17ax30-137" value="index.ts" style="sketch=0;outlineConnect=0;fontColor=#232F3E;gradientColor=none;fillColor=#232F3D;strokeColor=none;dashed=1;verticalLabelPosition=bottom;verticalAlign=top;align=center;html=1;fontSize=12;fontStyle=0;aspect=fixed;pointerEvents=1;shape=mxgraph.aws4.source_code;" vertex="1" parent="3HRxXxdEko_PYu17ax30-132">
          <mxGeometry x="9" y="46" width="29.23" height="40" as="geometry" />
        </mxCell>
        <mxCell id="3HRxXxdEko_PYu17ax30-140" value="..." style="text;html=1;align=center;verticalAlign=middle;whiteSpace=wrap;rounded=0;" vertex="1" parent="3HRxXxdEko_PYu17ax30-132">
          <mxGeometry y="-2" width="59.23" height="26" as="geometry" />
        </mxCell>
        <mxCell id="3HRxXxdEko_PYu17ax30-141" value="components" style="text;html=1;align=center;verticalAlign=middle;whiteSpace=wrap;rounded=0;" vertex="1" parent="1">
          <mxGeometry x="260" y="170" width="60" height="30" as="geometry" />
        </mxCell>
        <mxCell id="3HRxXxdEko_PYu17ax30-142" value="src" style="text;html=1;align=center;verticalAlign=middle;whiteSpace=wrap;rounded=0;" vertex="1" parent="1">
          <mxGeometry x="129.23" y="130" width="60" height="30" as="geometry" />
        </mxCell>
        <mxCell id="3HRxXxdEko_PYu17ax30-143" style="edgeStyle=orthogonalEdgeStyle;rounded=0;orthogonalLoop=1;jettySize=auto;html=1;exitX=0;exitY=0;exitDx=0;exitDy=70;exitPerimeter=0;dashed=1;" edge="1" parent="1" source="3HRxXxdEko_PYu17ax30-123" target="3HRxXxdEko_PYu17ax30-130">
          <mxGeometry relative="1" as="geometry" />
        </mxCell>
        <mxCell id="3HRxXxdEko_PYu17ax30-145" value="&amp;lt;&amp;lt;import&amp;gt;&amp;gt;" style="edgeLabel;html=1;align=center;verticalAlign=middle;resizable=0;points=[];" vertex="1" connectable="0" parent="3HRxXxdEko_PYu17ax30-143">
          <mxGeometry x="-0.0004" y="4" relative="1" as="geometry">
            <mxPoint as="offset" />
          </mxGeometry>
        </mxCell>
        <mxCell id="3HRxXxdEko_PYu17ax30-144" style="edgeStyle=orthogonalEdgeStyle;rounded=0;orthogonalLoop=1;jettySize=auto;html=1;exitX=0;exitY=0;exitDx=0;exitDy=70;exitPerimeter=0;dashed=1;" edge="1" parent="1" source="3HRxXxdEko_PYu17ax30-133" target="3HRxXxdEko_PYu17ax30-130">
          <mxGeometry relative="1" as="geometry" />
        </mxCell>
        <mxCell id="3HRxXxdEko_PYu17ax30-146" value="&amp;lt;&amp;lt;import&amp;gt;&amp;gt;" style="edgeLabel;html=1;align=center;verticalAlign=middle;resizable=0;points=[];" vertex="1" connectable="0" parent="3HRxXxdEko_PYu17ax30-144">
          <mxGeometry x="-0.1849" y="1" relative="1" as="geometry">
            <mxPoint as="offset" />
          </mxGeometry>
        </mxCell>
        <mxCell id="3HRxXxdEko_PYu17ax30-157" value="" style="shape=folder;fontStyle=1;tabWidth=80;tabHeight=30;tabPosition=left;html=1;boundedLbl=1;whiteSpace=wrap;fillColor=#b0e3e6;strokeColor=#0e8088;" vertex="1" parent="1">
          <mxGeometry x="110" y="570" width="310" height="240" as="geometry" />
        </mxCell>
        <mxCell id="3HRxXxdEko_PYu17ax30-158" value="generative AI" style="shape=folder;fontStyle=1;tabWidth=51;tabHeight=20;tabPosition=left;html=1;boundedLbl=1;whiteSpace=wrap;fillColor=#b1ddf0;strokeColor=#10739e;" vertex="1" parent="1">
          <mxGeometry x="132" y="630" width="120" height="60" as="geometry" />
        </mxCell>
        <mxCell id="3HRxXxdEko_PYu17ax30-159" value="vite-plugin-create-files" style="shape=folder;fontStyle=1;tabWidth=51;tabHeight=20;tabPosition=left;html=1;boundedLbl=1;whiteSpace=wrap;fillColor=#b1ddf0;strokeColor=#10739e;" vertex="1" parent="1">
          <mxGeometry x="270" y="640" width="120" height="60" as="geometry" />
        </mxCell>
        <mxCell id="3HRxXxdEko_PYu17ax30-163" style="edgeStyle=orthogonalEdgeStyle;rounded=0;orthogonalLoop=1;jettySize=auto;html=1;exitX=0.5;exitY=1;exitDx=0;exitDy=0;exitPerimeter=0;entryX=0;entryY=0;entryDx=85.5;entryDy=20;entryPerimeter=0;dashed=1;" edge="1" parent="1" source="3HRxXxdEko_PYu17ax30-133" target="3HRxXxdEko_PYu17ax30-158">
          <mxGeometry relative="1" as="geometry">
            <Array as="points">
              <mxPoint x="517" y="520" />
              <mxPoint x="217" y="520" />
            </Array>
          </mxGeometry>
        </mxCell>
        <mxCell id="3HRxXxdEko_PYu17ax30-165" style="edgeStyle=orthogonalEdgeStyle;rounded=0;orthogonalLoop=1;jettySize=auto;html=1;exitX=0;exitY=0;exitDx=295;exitDy=70;exitPerimeter=0;entryX=0;entryY=0;entryDx=85.5;entryDy=20;entryPerimeter=0;dashed=1;" edge="1" parent="1" source="3HRxXxdEko_PYu17ax30-123" target="3HRxXxdEko_PYu17ax30-158">
          <mxGeometry relative="1" as="geometry">
            <Array as="points">
              <mxPoint x="685" y="280" />
              <mxPoint x="685" y="520" />
              <mxPoint x="217" y="520" />
            </Array>
          </mxGeometry>
        </mxCell>
        <mxCell id="3HRxXxdEko_PYu17ax30-167" value="..." style="shape=folder;fontStyle=1;tabWidth=51;tabHeight=20;tabPosition=left;html=1;boundedLbl=1;whiteSpace=wrap;fillColor=#b1ddf0;strokeColor=#10739e;" vertex="1" parent="1">
          <mxGeometry x="189.23" y="720" width="120" height="60" as="geometry" />
        </mxCell>
        <mxCell id="3HRxXxdEko_PYu17ax30-168" value="index.d.ts" style="shape=folder;fontStyle=1;tabWidth=80;tabHeight=30;tabPosition=left;html=1;boundedLbl=1;whiteSpace=wrap;fillColor=#b0e3e6;strokeColor=#0e8088;" vertex="1" parent="1">
          <mxGeometry x="790" y="160" width="150" height="180" as="geometry" />
        </mxCell>
        <mxCell id="3HRxXxdEko_PYu17ax30-169" style="edgeStyle=orthogonalEdgeStyle;rounded=0;orthogonalLoop=1;jettySize=auto;html=1;exitX=0.5;exitY=1;exitDx=0;exitDy=0;exitPerimeter=0;entryX=0;entryY=0;entryDx=610;entryDy=285;entryPerimeter=0;dashed=1;" edge="1" parent="1" source="3HRxXxdEko_PYu17ax30-168" target="3HRxXxdEko_PYu17ax30-113">
          <mxGeometry relative="1" as="geometry" />
        </mxCell>
        <mxCell id="3HRxXxdEko_PYu17ax30-170" style="edgeStyle=orthogonalEdgeStyle;rounded=0;orthogonalLoop=1;jettySize=auto;html=1;exitX=0.5;exitY=1;exitDx=0;exitDy=0;exitPerimeter=0;entryX=0;entryY=0;entryDx=195;entryDy=30;entryPerimeter=0;dashed=1;" edge="1" parent="1" source="3HRxXxdEko_PYu17ax30-168" target="3HRxXxdEko_PYu17ax30-157">
          <mxGeometry relative="1" as="geometry">
            <Array as="points">
              <mxPoint x="865" y="520" />
              <mxPoint x="305" y="520" />
            </Array>
          </mxGeometry>
        </mxCell>
        <mxCell id="3HRxXxdEko_PYu17ax30-172" value="" style="shape=folder;fontStyle=1;tabWidth=80;tabHeight=30;tabPosition=left;html=1;boundedLbl=1;whiteSpace=wrap;fillColor=#b0e3e6;strokeColor=#0e8088;" vertex="1" parent="1">
          <mxGeometry x="490" y="570" width="290" height="260" as="geometry" />
        </mxCell>
        <mxCell id="3HRxXxdEko_PYu17ax30-183" value="" style="group" vertex="1" connectable="0" parent="1">
          <mxGeometry x="510" y="620" width="250" height="100" as="geometry" />
        </mxCell>
        <mxCell id="3HRxXxdEko_PYu17ax30-173" value="" style="shape=folder;fontStyle=1;tabWidth=70;tabHeight=20;tabPosition=left;html=1;boundedLbl=1;whiteSpace=wrap;fillColor=#b1ddf0;strokeColor=#10739e;" vertex="1" parent="3HRxXxdEko_PYu17ax30-183">
          <mxGeometry width="250" height="100" as="geometry" />
        </mxCell>
        <mxCell id="3HRxXxdEko_PYu17ax30-177" value="" style="sketch=0;html=1;aspect=fixed;strokeColor=none;shadow=0;fillColor=#3B8DF1;verticalAlign=top;labelPosition=center;verticalLabelPosition=bottom;shape=mxgraph.gcp2.files" vertex="1" parent="3HRxXxdEko_PYu17ax30-183">
          <mxGeometry x="20" y="40" width="41.24" height="40" as="geometry" />
        </mxCell>
        <mxCell id="3HRxXxdEko_PYu17ax30-180" value="server" style="text;html=1;align=center;verticalAlign=middle;whiteSpace=wrap;rounded=0;" vertex="1" parent="3HRxXxdEko_PYu17ax30-183">
          <mxGeometry x="1.240000000000009" width="60" height="20" as="geometry" />
        </mxCell>
        <mxCell id="3HRxXxdEko_PYu17ax30-181" value="" style="group" vertex="1" connectable="0" parent="3HRxXxdEko_PYu17ax30-183">
          <mxGeometry x="100" y="30" width="140" height="60" as="geometry" />
        </mxCell>
        <mxCell id="3HRxXxdEko_PYu17ax30-174" value="...." style="shape=folder;fontStyle=1;tabWidth=90;tabHeight=20;tabPosition=left;html=1;boundedLbl=1;whiteSpace=wrap;" vertex="1" parent="3HRxXxdEko_PYu17ax30-181">
          <mxGeometry width="140" height="60" as="geometry" />
        </mxCell>
        <mxCell id="3HRxXxdEko_PYu17ax30-176" value="routeCallbacks" style="text;html=1;align=center;verticalAlign=middle;whiteSpace=wrap;rounded=0;" vertex="1" parent="3HRxXxdEko_PYu17ax30-181">
          <mxGeometry x="15" width="60" height="20" as="geometry" />
        </mxCell>
        <mxCell id="3HRxXxdEko_PYu17ax30-185" value="" style="group" vertex="1" connectable="0" parent="1">
          <mxGeometry x="510" y="730" width="250" height="80" as="geometry" />
        </mxCell>
        <mxCell id="3HRxXxdEko_PYu17ax30-175" value="" style="shape=folder;fontStyle=1;tabWidth=70;tabHeight=20;tabPosition=left;html=1;boundedLbl=1;whiteSpace=wrap;fillColor=#b1ddf0;strokeColor=#10739e;" vertex="1" parent="3HRxXxdEko_PYu17ax30-185">
          <mxGeometry width="250" height="80" as="geometry" />
        </mxCell>
        <mxCell id="3HRxXxdEko_PYu17ax30-178" value="" style="sketch=0;html=1;aspect=fixed;strokeColor=none;shadow=0;fillColor=#3B8DF1;verticalAlign=top;labelPosition=center;verticalLabelPosition=bottom;shape=mxgraph.gcp2.files" vertex="1" parent="3HRxXxdEko_PYu17ax30-185">
          <mxGeometry x="100" y="30" width="41.24" height="40" as="geometry" />
        </mxCell>
        <mxCell id="3HRxXxdEko_PYu17ax30-179" value="others" style="text;html=1;align=center;verticalAlign=middle;whiteSpace=wrap;rounded=0;" vertex="1" parent="3HRxXxdEko_PYu17ax30-185">
          <mxGeometry x="10.620000000000005" width="60" height="20" as="geometry" />
        </mxCell>
        <mxCell id="3HRxXxdEko_PYu17ax30-187" style="edgeStyle=orthogonalEdgeStyle;rounded=0;orthogonalLoop=1;jettySize=auto;html=1;exitX=0;exitY=0;exitDx=120;exitDy=40;exitPerimeter=0;entryX=0;entryY=0;entryDx=0;entryDy=60;entryPerimeter=0;dashed=1;" edge="1" parent="1" source="3HRxXxdEko_PYu17ax30-159" target="3HRxXxdEko_PYu17ax30-173">
          <mxGeometry relative="1" as="geometry" />
        </mxCell>
        <mxCell id="3HRxXxdEko_PYu17ax30-188" value="&amp;lt;&amp;lt;import&amp;gt;&amp;gt;" style="edgeLabel;html=1;align=center;verticalAlign=middle;resizable=0;points=[];" vertex="1" connectable="0" parent="3HRxXxdEko_PYu17ax30-187">
          <mxGeometry x="-0.2598" y="2" relative="1" as="geometry">
            <mxPoint as="offset" />
          </mxGeometry>
        </mxCell>
        <mxCell id="3HRxXxdEko_PYu17ax30-189" style="edgeStyle=orthogonalEdgeStyle;rounded=0;orthogonalLoop=1;jettySize=auto;html=1;exitX=0;exitY=0;exitDx=290;exitDy=145;exitPerimeter=0;entryX=0;entryY=0;entryDx=195;entryDy=30;entryPerimeter=0;dashed=1;" edge="1" parent="1" source="3HRxXxdEko_PYu17ax30-172" target="3HRxXxdEko_PYu17ax30-157">
          <mxGeometry relative="1" as="geometry">
            <Array as="points">
              <mxPoint x="800" y="715" />
              <mxPoint x="800" y="520" />
              <mxPoint x="305" y="520" />
            </Array>
          </mxGeometry>
        </mxCell>
        <mxCell id="3HRxXxdEko_PYu17ax30-267" value="&amp;lt;&amp;lt;import&amp;gt;&amp;gt;" style="edgeLabel;html=1;align=center;verticalAlign=middle;resizable=0;points=[];" vertex="1" connectable="0" parent="3HRxXxdEko_PYu17ax30-189">
          <mxGeometry x="0.2605" relative="1" as="geometry">
            <mxPoint as="offset" />
          </mxGeometry>
        </mxCell>
        <mxCell id="3HRxXxdEko_PYu17ax30-191" style="edgeStyle=orthogonalEdgeStyle;rounded=0;orthogonalLoop=1;jettySize=auto;html=1;exitX=0;exitY=0;exitDx=290;exitDy=145;exitPerimeter=0;entryX=0;entryY=0;entryDx=610;entryDy=285;entryPerimeter=0;dashed=1;" edge="1" parent="1" source="3HRxXxdEko_PYu17ax30-172" target="3HRxXxdEko_PYu17ax30-113">
          <mxGeometry relative="1" as="geometry">
            <Array as="points">
              <mxPoint x="870" y="715" />
              <mxPoint x="870" y="415" />
            </Array>
          </mxGeometry>
        </mxCell>
        <mxCell id="3HRxXxdEko_PYu17ax30-269" value="&amp;lt;&amp;lt;import&amp;gt;&amp;gt;" style="edgeLabel;html=1;align=center;verticalAlign=middle;resizable=0;points=[];" vertex="1" connectable="0" parent="3HRxXxdEko_PYu17ax30-191">
          <mxGeometry x="0.4569" relative="1" as="geometry">
            <mxPoint as="offset" />
          </mxGeometry>
        </mxCell>
        <mxCell id="3HRxXxdEko_PYu17ax30-193" value="vite configuration" style="shape=folder;fontStyle=1;tabWidth=80;tabHeight=30;tabPosition=left;html=1;boundedLbl=1;whiteSpace=wrap;fillColor=#b0e3e6;strokeColor=#0e8088;" vertex="1" parent="1">
          <mxGeometry x="110" y="890" width="233" height="120" as="geometry" />
        </mxCell>
        <mxCell id="3HRxXxdEko_PYu17ax30-194" style="edgeStyle=orthogonalEdgeStyle;rounded=0;orthogonalLoop=1;jettySize=auto;html=1;exitX=0;exitY=0;exitDx=233;exitDy=52.5;exitPerimeter=0;entryX=0.75;entryY=1;entryDx=0;entryDy=0;entryPerimeter=0;dashed=1;" edge="1" parent="1" source="3HRxXxdEko_PYu17ax30-193" target="3HRxXxdEko_PYu17ax30-159">
          <mxGeometry relative="1" as="geometry">
            <Array as="points">
              <mxPoint x="343" y="930" />
              <mxPoint x="360" y="930" />
            </Array>
          </mxGeometry>
        </mxCell>
        <mxCell id="3HRxXxdEko_PYu17ax30-195" value="&amp;lt;&amp;lt;import&amp;gt;&amp;gt;" style="edgeLabel;html=1;align=center;verticalAlign=middle;resizable=0;points=[];" vertex="1" connectable="0" parent="3HRxXxdEko_PYu17ax30-194">
          <mxGeometry x="0.0409" y="-1" relative="1" as="geometry">
            <mxPoint y="-1" as="offset" />
          </mxGeometry>
        </mxCell>
        <mxCell id="3HRxXxdEko_PYu17ax30-196" value="" style="shape=folder;fontStyle=1;tabWidth=80;tabHeight=30;tabPosition=left;html=1;boundedLbl=1;whiteSpace=wrap;fillColor=#b0e3e6;strokeColor=#0e8088;" vertex="1" parent="1">
          <mxGeometry x="110" y="1040" width="420" height="150" as="geometry" />
        </mxCell>
        <mxCell id="3HRxXxdEko_PYu17ax30-197" value="" style="shape=folder;fontStyle=1;tabWidth=80;tabHeight=30;tabPosition=left;html=1;boundedLbl=1;whiteSpace=wrap;fillColor=#b1ddf0;strokeColor=#10739e;" vertex="1" parent="1">
          <mxGeometry x="151.5" y="1080" width="150" height="80" as="geometry" />
        </mxCell>
        <mxCell id="3HRxXxdEko_PYu17ax30-198" value="" style="shape=folder;fontStyle=1;tabWidth=80;tabHeight=30;tabPosition=left;html=1;boundedLbl=1;whiteSpace=wrap;fillColor=#b1ddf0;strokeColor=#10739e;" vertex="1" parent="1">
          <mxGeometry x="340" y="1080" width="150" height="80" as="geometry" />
        </mxCell>
        <mxCell id="3HRxXxdEko_PYu17ax30-199" value="docs" style="text;html=1;align=center;verticalAlign=middle;whiteSpace=wrap;rounded=0;" vertex="1" parent="1">
          <mxGeometry x="116.61000000000001" y="1040" width="60" height="30" as="geometry" />
        </mxCell>
        <mxCell id="3HRxXxdEko_PYu17ax30-200" value="uml" style="text;html=1;align=center;verticalAlign=middle;whiteSpace=wrap;rounded=0;" vertex="1" parent="1">
          <mxGeometry x="161.23000000000002" y="1080" width="60" height="30" as="geometry" />
        </mxCell>
        <mxCell id="3HRxXxdEko_PYu17ax30-201" value="others" style="text;html=1;align=center;verticalAlign=middle;whiteSpace=wrap;rounded=0;" vertex="1" parent="1">
          <mxGeometry x="350" y="1080" width="60" height="30" as="geometry" />
        </mxCell>
        <mxCell id="3HRxXxdEko_PYu17ax30-202" value="" style="shape=folder;fontStyle=1;tabWidth=80;tabHeight=30;tabPosition=left;html=1;boundedLbl=1;whiteSpace=wrap;fillColor=#b0e3e6;strokeColor=#0e8088;" vertex="1" parent="1">
          <mxGeometry x="570" y="890" width="210" height="460" as="geometry" />
        </mxCell>
        <mxCell id="3HRxXxdEko_PYu17ax30-205" value="" style="group" vertex="1" connectable="0" parent="1">
          <mxGeometry x="595" y="930" width="160" height="65" as="geometry" />
        </mxCell>
        <mxCell id="3HRxXxdEko_PYu17ax30-207" value="" style="group" vertex="1" connectable="0" parent="3HRxXxdEko_PYu17ax30-205">
          <mxGeometry width="160" height="65" as="geometry" />
        </mxCell>
        <mxCell id="3HRxXxdEko_PYu17ax30-209" value="" style="group" vertex="1" connectable="0" parent="3HRxXxdEko_PYu17ax30-207">
          <mxGeometry width="160" height="65" as="geometry" />
        </mxCell>
        <mxCell id="3HRxXxdEko_PYu17ax30-203" value="" style="shape=folder;fontStyle=1;tabWidth=60;tabHeight=20;tabPosition=left;html=1;boundedLbl=1;whiteSpace=wrap;fillColor=#b1ddf0;strokeColor=#10739e;" vertex="1" parent="3HRxXxdEko_PYu17ax30-209">
          <mxGeometry y="5" width="160" height="60" as="geometry" />
        </mxCell>
        <mxCell id="3HRxXxdEko_PYu17ax30-204" value="lib" style="text;html=1;align=center;verticalAlign=middle;whiteSpace=wrap;rounded=0;" vertex="1" parent="3HRxXxdEko_PYu17ax30-209">
          <mxGeometry width="60" height="30" as="geometry" />
        </mxCell>
        <mxCell id="3HRxXxdEko_PYu17ax30-210" value="" style="group" vertex="1" connectable="0" parent="1">
          <mxGeometry x="585" y="995" width="160" height="65" as="geometry" />
        </mxCell>
        <mxCell id="3HRxXxdEko_PYu17ax30-211" value="" style="group" vertex="1" connectable="0" parent="3HRxXxdEko_PYu17ax30-210">
          <mxGeometry width="160" height="65" as="geometry" />
        </mxCell>
        <mxCell id="3HRxXxdEko_PYu17ax30-212" value="" style="group" vertex="1" connectable="0" parent="3HRxXxdEko_PYu17ax30-211">
          <mxGeometry width="160" height="65" as="geometry" />
        </mxCell>
        <mxCell id="3HRxXxdEko_PYu17ax30-213" value="" style="shape=folder;fontStyle=1;tabWidth=60;tabHeight=20;tabPosition=left;html=1;boundedLbl=1;whiteSpace=wrap;fillColor=#b1ddf0;strokeColor=#10739e;" vertex="1" parent="3HRxXxdEko_PYu17ax30-212">
          <mxGeometry x="9" y="5" width="160" height="60" as="geometry" />
        </mxCell>
        <mxCell id="3HRxXxdEko_PYu17ax30-214" value="src" style="text;html=1;align=center;verticalAlign=middle;whiteSpace=wrap;rounded=0;" vertex="1" parent="3HRxXxdEko_PYu17ax30-212">
          <mxGeometry width="60" height="30" as="geometry" />
        </mxCell>
        <mxCell id="3HRxXxdEko_PYu17ax30-215" value="" style="group" vertex="1" connectable="0" parent="1">
          <mxGeometry x="585" y="1060" width="160" height="65" as="geometry" />
        </mxCell>
        <mxCell id="3HRxXxdEko_PYu17ax30-216" value="" style="group" vertex="1" connectable="0" parent="3HRxXxdEko_PYu17ax30-215">
          <mxGeometry width="160" height="65" as="geometry" />
        </mxCell>
        <mxCell id="3HRxXxdEko_PYu17ax30-217" value="" style="group" vertex="1" connectable="0" parent="3HRxXxdEko_PYu17ax30-216">
          <mxGeometry width="160" height="65" as="geometry" />
        </mxCell>
        <mxCell id="3HRxXxdEko_PYu17ax30-218" value="" style="shape=folder;fontStyle=1;tabWidth=60;tabHeight=20;tabPosition=left;html=1;boundedLbl=1;whiteSpace=wrap;fillColor=#b1ddf0;strokeColor=#10739e;" vertex="1" parent="3HRxXxdEko_PYu17ax30-217">
          <mxGeometry x="9" y="5" width="160" height="60" as="geometry" />
        </mxCell>
        <mxCell id="3HRxXxdEko_PYu17ax30-219" value="utils" style="text;html=1;align=center;verticalAlign=middle;whiteSpace=wrap;rounded=0;" vertex="1" parent="3HRxXxdEko_PYu17ax30-217">
          <mxGeometry width="60" height="30" as="geometry" />
        </mxCell>
        <mxCell id="3HRxXxdEko_PYu17ax30-221" value="" style="group" vertex="1" connectable="0" parent="1">
          <mxGeometry x="585" y="1125" width="160" height="65" as="geometry" />
        </mxCell>
        <mxCell id="3HRxXxdEko_PYu17ax30-222" value="" style="group" vertex="1" connectable="0" parent="3HRxXxdEko_PYu17ax30-221">
          <mxGeometry width="160" height="65" as="geometry" />
        </mxCell>
        <mxCell id="3HRxXxdEko_PYu17ax30-223" value="" style="group" vertex="1" connectable="0" parent="3HRxXxdEko_PYu17ax30-222">
          <mxGeometry width="160" height="65" as="geometry" />
        </mxCell>
        <mxCell id="3HRxXxdEko_PYu17ax30-224" value="" style="shape=folder;fontStyle=1;tabWidth=60;tabHeight=20;tabPosition=left;html=1;boundedLbl=1;whiteSpace=wrap;fillColor=#b1ddf0;strokeColor=#10739e;" vertex="1" parent="3HRxXxdEko_PYu17ax30-223">
          <mxGeometry x="9" y="5" width="160" height="60" as="geometry" />
        </mxCell>
        <mxCell id="3HRxXxdEko_PYu17ax30-225" value="types" style="text;html=1;align=center;verticalAlign=middle;whiteSpace=wrap;rounded=0;" vertex="1" parent="3HRxXxdEko_PYu17ax30-223">
          <mxGeometry width="60" height="30" as="geometry" />
        </mxCell>
        <mxCell id="3HRxXxdEko_PYu17ax30-226" value="" style="group" vertex="1" connectable="0" parent="1">
          <mxGeometry x="585" y="1190" width="160" height="65" as="geometry" />
        </mxCell>
        <mxCell id="3HRxXxdEko_PYu17ax30-227" value="" style="group" vertex="1" connectable="0" parent="3HRxXxdEko_PYu17ax30-226">
          <mxGeometry width="160" height="65" as="geometry" />
        </mxCell>
        <mxCell id="3HRxXxdEko_PYu17ax30-228" value="" style="group" vertex="1" connectable="0" parent="3HRxXxdEko_PYu17ax30-227">
          <mxGeometry width="160" height="65" as="geometry" />
        </mxCell>
        <mxCell id="3HRxXxdEko_PYu17ax30-229" value="" style="shape=folder;fontStyle=1;tabWidth=60;tabHeight=20;tabPosition=left;html=1;boundedLbl=1;whiteSpace=wrap;fillColor=#b1ddf0;strokeColor=#10739e;" vertex="1" parent="3HRxXxdEko_PYu17ax30-228">
          <mxGeometry x="9" y="5" width="160" height="60" as="geometry" />
        </mxCell>
        <mxCell id="3HRxXxdEko_PYu17ax30-230" value="dynamic" style="text;html=1;align=center;verticalAlign=middle;whiteSpace=wrap;rounded=0;" vertex="1" parent="3HRxXxdEko_PYu17ax30-228">
          <mxGeometry x="9" width="60" height="30" as="geometry" />
        </mxCell>
        <mxCell id="3HRxXxdEko_PYu17ax30-232" value="index.cjs.js" style="sketch=0;outlineConnect=0;fontColor=#232F3E;gradientColor=none;fillColor=#232F3D;strokeColor=none;dashed=0;verticalLabelPosition=bottom;verticalAlign=top;align=center;html=1;fontSize=12;fontStyle=0;aspect=fixed;pointerEvents=1;shape=mxgraph.aws4.source_code;" vertex="1" parent="1">
          <mxGeometry x="595" y="1270" width="29.23" height="40" as="geometry" />
        </mxCell>
        <mxCell id="3HRxXxdEko_PYu17ax30-233" value="index.es.js" style="sketch=0;outlineConnect=0;fontColor=#232F3E;gradientColor=none;fillColor=#232F3D;strokeColor=none;dashed=0;verticalLabelPosition=bottom;verticalAlign=top;align=center;html=1;fontSize=12;fontStyle=0;aspect=fixed;pointerEvents=1;shape=mxgraph.aws4.source_code;" vertex="1" parent="1">
          <mxGeometry x="660.38" y="1270" width="29.23" height="40" as="geometry" />
        </mxCell>
        <mxCell id="3HRxXxdEko_PYu17ax30-234" value="...chunks" style="sketch=0;outlineConnect=0;fontColor=#232F3E;gradientColor=none;fillColor=#232F3D;strokeColor=none;dashed=0;verticalLabelPosition=bottom;verticalAlign=top;align=center;html=1;fontSize=12;fontStyle=0;aspect=fixed;pointerEvents=1;shape=mxgraph.aws4.source_code;" vertex="1" parent="1">
          <mxGeometry x="720" y="1270" width="29.23" height="40" as="geometry" />
        </mxCell>
        <mxCell id="3HRxXxdEko_PYu17ax30-236" style="edgeStyle=orthogonalEdgeStyle;rounded=0;orthogonalLoop=1;jettySize=auto;html=1;exitX=0;exitY=0;exitDx=0;exitDy=30;exitPerimeter=0;entryX=0;entryY=0;entryDx=310;entryDy=187.5;entryPerimeter=0;dashed=1;" edge="1" parent="1" source="3HRxXxdEko_PYu17ax30-202" target="3HRxXxdEko_PYu17ax30-157">
          <mxGeometry relative="1" as="geometry">
            <Array as="points">
              <mxPoint x="440" y="920" />
              <mxPoint x="440" y="758" />
            </Array>
          </mxGeometry>
        </mxCell>
        <mxCell id="3HRxXxdEko_PYu17ax30-237" style="edgeStyle=orthogonalEdgeStyle;rounded=0;orthogonalLoop=1;jettySize=auto;html=1;exitX=0;exitY=0;exitDx=0;exitDy=30;exitPerimeter=0;entryX=0.541;entryY=1;entryDx=0;entryDy=0;entryPerimeter=0;dashed=1;" edge="1" parent="1" source="3HRxXxdEko_PYu17ax30-202" target="3HRxXxdEko_PYu17ax30-113">
          <mxGeometry relative="1" as="geometry">
            <mxPoint x="400" y="520" as="targetPoint" />
          </mxGeometry>
        </mxCell>
        <mxCell id="3HRxXxdEko_PYu17ax30-238" style="edgeStyle=orthogonalEdgeStyle;rounded=0;orthogonalLoop=1;jettySize=auto;html=1;exitX=0;exitY=0;exitDx=0;exitDy=30;exitPerimeter=0;entryX=0.75;entryY=1;entryDx=0;entryDy=0;entryPerimeter=0;dashed=1;" edge="1" parent="1" source="3HRxXxdEko_PYu17ax30-202" target="3HRxXxdEko_PYu17ax30-168">
          <mxGeometry relative="1" as="geometry">
            <Array as="points">
              <mxPoint x="550" y="920" />
              <mxPoint x="550" y="860" />
              <mxPoint x="902" y="860" />
            </Array>
          </mxGeometry>
        </mxCell>
        <mxCell id="3HRxXxdEko_PYu17ax30-242" value="&amp;lt;&amp;lt;access&amp;gt;&amp;gt;" style="edgeLabel;html=1;align=center;verticalAlign=middle;resizable=0;points=[];" vertex="1" connectable="0" parent="3HRxXxdEko_PYu17ax30-238">
          <mxGeometry x="0.4128" y="-1" relative="1" as="geometry">
            <mxPoint as="offset" />
          </mxGeometry>
        </mxCell>
        <mxCell id="3HRxXxdEko_PYu17ax30-243" value="" style="shape=folder;fontStyle=1;tabWidth=80;tabHeight=30;tabPosition=left;html=1;boundedLbl=1;whiteSpace=wrap;fillColor=#fad7ac;strokeColor=#b46504;" vertex="1" parent="1">
          <mxGeometry x="1070" y="60" width="480" height="280" as="geometry" />
        </mxCell>
        <mxCell id="3HRxXxdEko_PYu17ax30-244" value="" style="shape=folder;fontStyle=1;tabWidth=70;tabHeight=21;tabPosition=left;html=1;boundedLbl=1;whiteSpace=wrap;fillColor=#b0e3e6;strokeColor=#0e8088;" vertex="1" parent="1">
          <mxGeometry x="1150" y="109" width="170" height="80" as="geometry" />
        </mxCell>
        <mxCell id="3HRxXxdEko_PYu17ax30-245" style="edgeStyle=orthogonalEdgeStyle;rounded=0;orthogonalLoop=1;jettySize=auto;html=1;exitX=0;exitY=0;exitDx=0;exitDy=50;exitPerimeter=0;entryX=1.003;entryY=0.069;entryDx=0;entryDy=0;entryPerimeter=0;dashed=1;" edge="1" parent="1" source="3HRxXxdEko_PYu17ax30-244" target="3HRxXxdEko_PYu17ax30-112">
          <mxGeometry relative="1" as="geometry" />
        </mxCell>
        <mxCell id="3HRxXxdEko_PYu17ax30-247" value="&amp;lt;&amp;lt;import&amp;gt;&amp;gt;" style="edgeLabel;html=1;align=center;verticalAlign=middle;resizable=0;points=[];" vertex="1" connectable="0" parent="3HRxXxdEko_PYu17ax30-245">
          <mxGeometry x="0.0509" y="-2" relative="1" as="geometry">
            <mxPoint as="offset" />
          </mxGeometry>
        </mxCell>
        <mxCell id="3HRxXxdEko_PYu17ax30-248" value="" style="shape=folder;fontStyle=1;tabWidth=70;tabHeight=20;tabPosition=left;html=1;boundedLbl=1;whiteSpace=wrap;fillColor=#b0e3e6;strokeColor=#0e8088;" vertex="1" parent="1">
          <mxGeometry x="1150" y="220" width="170" height="80" as="geometry" />
        </mxCell>
        <mxCell id="3HRxXxdEko_PYu17ax30-249" style="edgeStyle=orthogonalEdgeStyle;rounded=0;orthogonalLoop=1;jettySize=auto;html=1;exitX=0;exitY=0;exitDx=0;exitDy=30;exitPerimeter=0;entryX=0.5;entryY=1;entryDx=0;entryDy=0;entryPerimeter=0;dashed=1;" edge="1" parent="1" source="3HRxXxdEko_PYu17ax30-202" target="3HRxXxdEko_PYu17ax30-248">
          <mxGeometry relative="1" as="geometry">
            <Array as="points">
              <mxPoint x="550" y="920" />
              <mxPoint x="550" y="860" />
              <mxPoint x="1235" y="860" />
            </Array>
          </mxGeometry>
        </mxCell>
        <mxCell id="3HRxXxdEko_PYu17ax30-250" value="&amp;lt;&amp;lt;access&amp;gt;&amp;gt;" style="edgeLabel;html=1;align=center;verticalAlign=middle;resizable=0;points=[];" vertex="1" connectable="0" parent="3HRxXxdEko_PYu17ax30-249">
          <mxGeometry x="0.6857" y="1" relative="1" as="geometry">
            <mxPoint y="-1" as="offset" />
          </mxGeometry>
        </mxCell>
        <mxCell id="3HRxXxdEko_PYu17ax30-251" style="edgeStyle=orthogonalEdgeStyle;rounded=0;orthogonalLoop=1;jettySize=auto;html=1;exitX=0;exitY=0;exitDx=295;exitDy=70;exitPerimeter=0;entryX=0.5;entryY=1;entryDx=0;entryDy=0;entryPerimeter=0;dashed=1;" edge="1" parent="1" source="3HRxXxdEko_PYu17ax30-123" target="3HRxXxdEko_PYu17ax30-248">
          <mxGeometry relative="1" as="geometry">
            <Array as="points">
              <mxPoint x="665" y="390" />
              <mxPoint x="1235" y="390" />
            </Array>
          </mxGeometry>
        </mxCell>
        <mxCell id="3HRxXxdEko_PYu17ax30-252" style="edgeStyle=orthogonalEdgeStyle;rounded=0;orthogonalLoop=1;jettySize=auto;html=1;exitX=0;exitY=0;exitDx=295;exitDy=70;exitPerimeter=0;entryX=0.5;entryY=1;entryDx=0;entryDy=0;entryPerimeter=0;dashed=1;" edge="1" parent="1" source="3HRxXxdEko_PYu17ax30-133" target="3HRxXxdEko_PYu17ax30-248">
          <mxGeometry relative="1" as="geometry">
            <Array as="points">
              <mxPoint x="665" y="390" />
              <mxPoint x="1235" y="390" />
            </Array>
          </mxGeometry>
        </mxCell>
        <mxCell id="3HRxXxdEko_PYu17ax30-253" value="&amp;lt;&amp;lt;import&amp;gt;&amp;gt;" style="edgeLabel;html=1;align=center;verticalAlign=middle;resizable=0;points=[];" vertex="1" connectable="0" parent="3HRxXxdEko_PYu17ax30-252">
          <mxGeometry x="0.3382" y="2" relative="1" as="geometry">
            <mxPoint as="offset" />
          </mxGeometry>
        </mxCell>
        <mxCell id="3HRxXxdEko_PYu17ax30-254" value="some files" style="text;html=1;align=center;verticalAlign=middle;whiteSpace=wrap;rounded=0;" vertex="1" parent="1">
          <mxGeometry x="1156" y="104" width="60" height="30" as="geometry" />
        </mxCell>
        <mxCell id="3HRxXxdEko_PYu17ax30-255" value="dynamic" style="text;html=1;align=center;verticalAlign=middle;whiteSpace=wrap;rounded=0;" vertex="1" parent="1">
          <mxGeometry x="1154" y="215" width="60" height="30" as="geometry" />
        </mxCell>
        <mxCell id="3HRxXxdEko_PYu17ax30-256" value="" style="shape=folder;fontStyle=1;tabWidth=80;tabHeight=30;tabPosition=left;html=1;boundedLbl=1;whiteSpace=wrap;fillColor=#b0e3e6;strokeColor=#0e8088;" vertex="1" parent="1">
          <mxGeometry x="1350" y="180" width="170" height="80" as="geometry" />
        </mxCell>
        <mxCell id="3HRxXxdEko_PYu17ax30-257" value="configuration" style="text;html=1;align=center;verticalAlign=middle;whiteSpace=wrap;rounded=0;" vertex="1" parent="1">
          <mxGeometry x="1363" y="180" width="60" height="30" as="geometry" />
        </mxCell>
        <mxCell id="3HRxXxdEko_PYu17ax30-258" style="edgeStyle=orthogonalEdgeStyle;rounded=0;orthogonalLoop=1;jettySize=auto;html=1;exitX=0;exitY=0;exitDx=870;exitDy=347.5;exitPerimeter=0;entryX=0.5;entryY=1;entryDx=0;entryDy=0;entryPerimeter=0;dashed=1;" edge="1" parent="1" source="3HRxXxdEko_PYu17ax30-112" target="3HRxXxdEko_PYu17ax30-256">
          <mxGeometry relative="1" as="geometry" />
        </mxCell>
        <mxCell id="3HRxXxdEko_PYu17ax30-259" value="&amp;lt;&amp;lt;access&amp;gt;&amp;gt;" style="edgeLabel;html=1;align=center;verticalAlign=middle;resizable=0;points=[];" vertex="1" connectable="0" parent="3HRxXxdEko_PYu17ax30-258">
          <mxGeometry x="-0.5354" y="-1" relative="1" as="geometry">
            <mxPoint x="-1" as="offset" />
          </mxGeometry>
        </mxCell>
        <mxCell id="3HRxXxdEko_PYu17ax30-260" value="User" style="text;html=1;align=center;verticalAlign=middle;whiteSpace=wrap;rounded=0;" vertex="1" parent="1">
          <mxGeometry x="1080" y="60" width="60" height="30" as="geometry" />
        </mxCell>
        <mxCell id="3HRxXxdEko_PYu17ax30-261" value="Library" style="text;html=1;align=center;verticalAlign=middle;whiteSpace=wrap;rounded=0;" vertex="1" parent="1">
          <mxGeometry x="91.5" y="70" width="60" height="30" as="geometry" />
        </mxCell>
        <mxCell id="3HRxXxdEko_PYu17ax30-262" value="lib" style="text;html=1;align=center;verticalAlign=middle;whiteSpace=wrap;rounded=0;" vertex="1" parent="1">
          <mxGeometry x="110" y="570" width="60" height="30" as="geometry" />
        </mxCell>
        <mxCell id="3HRxXxdEko_PYu17ax30-263" value="utils" style="text;html=1;align=center;verticalAlign=middle;whiteSpace=wrap;rounded=0;" vertex="1" parent="1">
          <mxGeometry x="500" y="570" width="60" height="30" as="geometry" />
        </mxCell>
        <mxCell id="3HRxXxdEko_PYu17ax30-264" value="vite config" style="text;html=1;align=center;verticalAlign=middle;whiteSpace=wrap;rounded=0;" vertex="1" parent="1">
          <mxGeometry x="116.61000000000001" y="890" width="60" height="30" as="geometry" />
        </mxCell>
        <mxCell id="3HRxXxdEko_PYu17ax30-265" value="dist" style="text;html=1;align=center;verticalAlign=middle;whiteSpace=wrap;rounded=0;" vertex="1" parent="1">
          <mxGeometry x="584" y="890" width="60" height="30" as="geometry" />
        </mxCell>
        <mxCell id="3HRxXxdEko_PYu17ax30-266" value="types" style="text;html=1;align=center;verticalAlign=middle;whiteSpace=wrap;rounded=0;" vertex="1" parent="1">
          <mxGeometry x="800" y="160" width="60" height="30" as="geometry" />
        </mxCell>
        <mxCell id="3HRxXxdEko_PYu17ax30-271" style="edgeStyle=orthogonalEdgeStyle;rounded=0;orthogonalLoop=1;jettySize=auto;html=1;exitX=0;exitY=0;exitDx=0;exitDy=30;exitPerimeter=0;entryX=-0.001;entryY=0.724;entryDx=0;entryDy=0;entryPerimeter=0;dashed=1;" edge="1" parent="1" source="3HRxXxdEko_PYu17ax30-202" target="3HRxXxdEko_PYu17ax30-172">
          <mxGeometry relative="1" as="geometry">
            <Array as="points">
              <mxPoint x="440" y="920" />
              <mxPoint x="440" y="758" />
            </Array>
          </mxGeometry>
        </mxCell>
        <mxCell id="3HRxXxdEko_PYu17ax30-274" value="&amp;lt;&amp;lt;access&amp;gt;&amp;gt;" style="edgeLabel;html=1;align=center;verticalAlign=middle;resizable=0;points=[];" vertex="1" connectable="0" parent="3HRxXxdEko_PYu17ax30-271">
          <mxGeometry x="0.293" y="-3" relative="1" as="geometry">
            <mxPoint as="offset" />
          </mxGeometry>
        </mxCell>
      </root>
    </mxGraphModel>
  </diagram>
</mxfile>
